HIERARCHY
ROOT Torso
{
    OFFSET 0 0 0
    CHANNELS 6 Xposition Yposition Zposition Xrotation Yrotation Zrotation
    JOINT LHip1 
    {   
        OFFSET -0 -0.06 -0.01
        CHANNELS 3 Xrotation Yrotation Zrotation
        JOINT LHip2
        {
            OFFSET 0.055 -0.055 0
            CHANNELS 3 Xrotation Yrotation Zrotation
            JOINT LHip3
            {
                OFFSET 0 0 0.01
                CHANNELS 3 Xrotation Yrotation Zrotation
                JOINT LThigh
                {
                    OFFSET -0.01 0 0
                    CHANNELS 3 Xrotation Yrotation Zrotation
                    JOINT LLeg
                    {
                        OFFSET 0.01 -0.120 0.014
                        CHANNELS 3 Xrotation Yrotation Zrotation
                        JOINT LFoot
                        {
                            OFFSET 0 -0.1 -0.01
                            CHANNELS 3 Xrotation Yrotation Zrotation
                            End Site
                            {
                                OFFSET 0 -0.035 0.09
                            }
                        }
                    }
                }
            }
        }
    }
    JOINT RHip1 
    {   
        OFFSET 0 -0.06 -0.01
        CHANNELS 3 Xrotation Yrotation Zrotation
        JOINT RHip2
        {
            OFFSET -0.055 -0.055 0
            CHANNELS 3 Xrotation Yrotation Zrotation
            JOINT RHip3
            {
                OFFSET 0 0 0.01
                CHANNELS 3 Xrotation Yrotation Zrotation
                JOINT RThigh
                {
                    OFFSET -0.01 0 0
                    CHANNELS 3 Xrotation Yrotation Zrotation
                    JOINT RLeg
                    {
                        OFFSET 0.01 -0.120 0.014
                        CHANNELS 3 Xrotation Yrotation Zrotation
                        JOINT RFoot
                        {
                            OFFSET 0 -0.1 -0.01
                            CHANNELS 3 Xrotation Yrotation Zrotation
                            End Site
                            {
                                OFFSET 0 -0.035 0.09
                            }
                        }
                    }
                }
            }
        }
    }
    JOINT Neck
    {
        OFFSET 0 0.04 0
        CHANNELS 3 Xrotation Yrotation Zrotation
        JOINT Head
        {
            OFFSET 0 0.1 0
            CHANNELS 3 Xrotation Yrotation Zrotation
            End Site 
            {
                OFFSET 0 0.07 0
            }
        }
    }
    JOINT LUpperarm
    {
        OFFSET 0.098 0.15 0
        CHANNELS 3 Xrotation Yrotation Zrotation
        JOINT LLowerarm
        {
            OFFSET 0 0.009 0.09
            CHANNELS 3 Xrotation Yrotation Zrotation
            End Site
            {
                OFFSET 0 0 0.105
            }
        }
    }
    JOINT RUpperarm
    {
        OFFSET -0.098 0.15 0
        CHANNELS 3 Xrotation Yrotation Zrotation
        JOINT RLowerarm
        {
            OFFSET 0 0.009 0.09
            CHANNELS 3 Xrotation Yrotation Zrotation
            End Site
            {
                OFFSET 0 0 0.105
            }
        }
    }
}
MOTION
Frames: 64
Frame Time: 0.04
0 0 0 0 0 0 0 -0.0 0 0 -5.73 0 0 1.84 0 0 0 0 0 0 0.0 0.0 5.73 0 0 -0.0 0 0 -5.73 0 0 3.33 0 0 0 0 0 0 -1.72 0.0 5.73 0 0 0.0 0 -0.0 0 0 -0.0 0 -0.0 0 -0.0 0.0 -91.52 0 0.0 0 0.0 -0.0
0 0 0 0 0 0 0 -0.0 0 0 -5.84 0 0 1.84 0 0 0 0 0 0 0.0 0.0 5.84 0 0 -0.0 0 0 -5.84 0 0 4.82 0 0 0 0 0 0 -3.44 0.0 5.84 0 0 0.0 0 -0.0 0 0 -0.0 0 -0.0 0 -0.0 0.0 -91.52 0 0.0 0 0.0 -0.0
0 0 0 0 0 0 0 -0.0 0 0 -5.96 0 0 1.84 0 0 0 0 0 0 0.0 0.0 5.96 0 0 -0.0 0 0 -5.96 0 0 6.31 0 0 0 0 0 0 -5.16 0.0 5.96 0 0 0.0 0 -0.0 0 0 -0.0 0 -0.0 0 0.0 0.0 -91.52 0 0.0 0 0.0 -0.0
0 0 0 0 0 0 0 -0.0 0 0 -6.07 0 0 1.84 0 0 0 0 0 0 0.0 0.0 6.07 0 0 -0.0 0 0 -6.07 0 0 7.8 0 0 0 0 0 0 -6.88 0.0 6.07 0 0 0.0 0 -0.0 0 0 -0.0 0 -0.0 0 0.0 0.0 -91.52 0 0.0 0 0.0 0.0
0 0 0 0 0 0 0 -0.0 0 0 -6.19 0 0 1.84 0 0 0 0 0 0 0.0 0.0 6.19 0 0 -0.0 0 0 -6.19 0 0 9.29 0 0 0 0 0 0 -8.59 0.0 6.19 0 0 0.0 0 -0.0 0 0 -0.0 0 -0.0 0 0.0 0.0 -91.52 0 0.0 0 0.0 0.0
0 0 0 0 0 0 0 -0.0 0 0 -6.3 0 0 1.84 0 0 0 0 0 0 0.0 0.0 6.3 0 0 -0.0 0 0 -6.3 0 0 10.78 0 0 0 0 0 0 -10.31 0.0 6.3 0 0 0.0 0 -0.0 0 0 -0.0 0 -0.0 0 0.0 0.0 -91.52 0 0.0 0 0.0 0.0
0 0 0 0 0 0 0 -0.0 0 0 -6.42 0 0 1.84 0 0 0 0 0 0 0.0 0.0 6.42 0 0 -0.0 0 0 -6.42 0 0 12.27 0 0 0 0 0 0 -12.03 0.0 6.42 0 0 0.0 0 -0.0 0 0 -0.0 0 -0.0 0 0.0 0.0 -91.52 0 0.0 0 0.0 0.0
0 0 0 0 0 0 0 -0.0 0 0 -6.53 0 0 1.84 0 0 0 0 0 0 0.0 0.0 6.53 0 0 -0.0 0 0 -6.53 0 0 13.76 0 0 0 0 0 0 -13.75 0.0 6.53 0 0 0.0 0 -0.0 0 0 -0.0 0 -0.0 0 -0.0 0.0 -91.52 0 0.0 0 0.0 0.0
0 0 0 0 0 0 0 -0.0 0 0 -6.65 0 0 1.84 0 0 0 0 0 0 0.0 0.0 6.65 0 0 -0.0 0 0 -6.65 0 0 15.25 0 0 0 0 0 0 -15.47 0.0 6.65 0 0 -0.0 0 -0.0 0 0 -0.0 0 -0.0 0 -0.0 0.0 -91.52 0 0.0 0 0.0 0.0
0 0 0 0 0 0 0 -0.0 0 0 -6.76 0 0 1.84 0 0 0 0 0 0 0.0 0.0 6.76 0 0 -0.0 0 0 -6.76 0 0 16.74 0 0 0 0 0 0 -17.19 0.0 6.76 0 0 -0.0 0 -0.0 0 0 -0.0 0 -0.0 0 -0.0 0.0 -91.52 0 0.0 0 0.0 0.0
0 0 0 0 0 0 0 -0.0 0 0 -6.88 0 0 1.84 0 0 0 0 0 0 0.0 0.0 6.88 0 0 0.0 0 0 -6.88 0 0 18.23 0 0 0 0 0 0 -18.91 0.0 6.88 0 0 -0.0 0 -0.0 0 0 -0.0 0 -0.0 0 -0.0 0.0 -91.52 0 0.0 0 0.0 0.0
0 0 0 0 0 0 0 -0.0 0 0 -6.99 0 0 1.84 0 0 0 0 0 0 0.0 0.0 6.99 0 0 0.0 0 0 -6.99 0 0 19.72 0 0 0 0 0 0 -20.63 0.0 6.99 0 0 -0.0 0 -0.0 0 0 -0.0 0 -0.0 0 -0.0 0.0 -91.52 0 0.0 0 0.0 0.0
0 0 0 0 0 0 0 -0.0 0 0 -7.1 0 0 1.84 0 0 0 0 0 0 0.0 0.0 7.1 0 0 0.0 0 0 -7.1 0 0 21.21 0 0 0 0 0 0 -22.34 0.0 7.1 0 0 -0.0 0 -0.0 0 0 -0.0 0 -0.0 0 -0.0 0.0 -91.52 0 0.0 0 0.0 0.0
0 0 0 0 0 0 0 -0.0 0 0 -7.22 0 0 1.84 0 0 0 0 0 0 0.0 0.0 7.22 0 0 0.0 0 0 -7.22 0 0 22.7 0 0 0 0 0 0 -24.06 0.0 7.22 0 0 -0.0 0 -0.0 0 0 -0.0 0 -0.0 0 -0.0 0.0 -91.52 0 0.0 0 0.0 0.0
0 0 0 0 0 0 0 -0.0 0 0 -7.33 0 0 1.84 0 0 0 0 0 0 0.0 0.0 7.33 0 0 0.0 0 0 -7.33 0 0 24.19 0 0 0 0 0 0 -25.78 0.0 7.33 0 0 -0.0 0 -0.0 0 0 -0.0 0 -0.0 0 -0.0 0.0 -91.52 0 0.0 0 0.0 0.0
0 0 0 0 0 0 0 -0.0 0 0 -7.45 0 0 1.84 0 0 0 0 0 0 0.0 0.0 7.45 0 0 0.0 0 0 -7.45 0 0 25.68 0 0 0 0 0 0 -27.5 0.0 7.45 0 0 -0.0 0 -0.0 0 0 -0.0 0 -0.0 0 -0.0 0.0 -91.52 0 0.0 0 0.0 0.0
0 0 0 0 0 0 0 -0.0 0 0 -7.56 0 0 1.84 0 0 0 0 0 0 0.0 0.0 7.56 0 0 0.0 0 0 -7.56 0 0 27.17 0 0 0 0 0 0 -29.22 0.0 7.56 0 0 -0.0 0 -0.0 0 0 -0.0 0 -0.0 0 -0.0 0.0 -91.52 0 0.0 0 0.0 0.0
0 0 0 0 0 0 0 -0.0 0 0 -7.68 0 0 1.84 0 0 0 0 0 0 0.0 0.0 7.68 0 0 0.0 0 0 -7.68 0 0 28.65 0 0 0 0 0 0 -30.94 0.0 7.68 0 0 -0.0 0 -0.0 0 0 -0.0 0 -0.0 0 -0.0 0.0 -91.52 0 0.0 0 0.0 0.0
0 0 0 0 0 0 0 -0.0 0 0 -7.79 0 0 1.84 0 0 0 0 0 0 0.0 0.0 7.79 0 0 0.0 0 0 -7.79 0 0 30.14 0 0 0 0 0 0 -32.66 0.0 7.79 0 0 -0.0 0 -0.0 0 0 -0.0 0 -0.0 0 -0.0 0.0 -91.52 0 0.0 0 0.0 0.0
0 0 0 0 0 0 0 -0.0 0 0 -7.91 0 0 1.84 0 0 0 0 0 0 0.0 0.0 7.91 0 0 0.0 0 0 -7.91 0 0 31.63 0 0 0 0 0 0 -34.38 0.0 7.91 0 0 -0.0 0 -0.0 0 0 -0.0 0 -0.0 0 -0.0 -0.0 -91.52 0 0.0 0 0.0 0.0
0 0 0 0 0 0 0 -0.0 0 0 -8.02 0 0 1.84 0 0 0 0 0 0 0.0 0.0 8.02 0 0 0.0 0 0 -8.02 0 0 33.12 0 0 0 0 0 0 -36.09 0.0 8.02 0 0 -0.0 0 -0.0 0 0 -0.0 0 -0.0 0 -0.0 -0.0 -91.52 0 0.0 0 0.0 0.0
0 0 0 0 0 0 0 -0.0 0 0 -8.14 0 0 1.84 0 0 0 0 0 0 0.0 0.0 8.14 0 0 0.0 0 0 -8.14 0 0 34.61 0 0 0 0 0 0 -37.81 0.0 8.14 0 0 -0.0 0 -0.0 0 0 -0.0 0 -0.0 0 -0.0 -0.0 -91.52 0 0.0 0 0.0 0.0
0 0 0 0 0 0 0 -0.0 0 0 -8.25 0 0 1.84 0 0 0 0 0 0 0.0 0.0 8.25 0 0 0.0 0 0 -8.25 0 0 36.1 0 0 0 0 0 0 -39.53 0.0 8.25 0 0 -0.0 0 -0.0 0 0 -0.0 0 -0.0 0 -0.0 -0.0 -91.52 0 0.0 0 0.0 0.0
0 0 0 0 0 0 0 -0.0 0 0 -8.37 0 0 1.84 0 0 0 0 0 0 0.0 0.0 8.37 0 0 0.0 0 0 -8.37 0 0 37.59 0 0 0 0 0 0 -41.25 0.0 8.37 0 0 -0.0 0 -0.0 0 0 -0.0 0 -0.0 0 -0.0 -0.0 -91.52 0 0.0 0 0.0 0.0
0 0 0 0 0 0 0 -0.0 0 0 -8.48 0 0 1.84 0 0 0 0 0 0 0.0 0.0 8.48 0 0 0.0 0 0 -8.48 0 0 39.08 0 0 0 0 0 0 -42.97 0.0 8.48 0 0 -0.0 0 -0.0 0 0 -0.0 0 -0.0 0 -0.0 -0.0 -91.52 0 0.0 0 0.0 0.0
0 0 0 0 0 0 0 -0.0 0 0 -8.59 0 0 1.84 0 0 0 0 0 0 0.0 0.0 8.59 0 0 0.0 0 0 -8.59 0 0 40.57 0 0 0 0 0 0 -44.69 0.0 8.59 0 0 -0.0 0 -0.0 0 0 -0.0 0 -0.0 0 -0.0 -0.0 -91.52 0 0.0 0 0.0 0.0
0 0 0 0 0 0 0 -0.0 0 0 -8.71 0 0 1.84 0 0 0 0 0 0 0.0 0.0 8.71 0 0 0.0 0 0 -8.71 0 0 42.06 0 0 0 0 0 0 -46.41 0.0 8.71 0 0 -0.0 0 -0.0 0 0 -0.0 0 -0.0 0 -0.0 -0.0 -91.52 0 0.0 0 0.0 0.0
0 0 0 0 0 0 0 -0.0 0 0 -8.82 0 0 1.84 0 0 0 0 0 0 0.0 0.0 8.82 0 0 0.0 0 0 -8.82 0 0 43.55 0 0 0 0 0 0 -48.13 0.0 8.82 0 0 -0.0 0 -0.0 0 0 -0.0 0 -0.0 0 -0.0 -0.0 -91.52 0 0.0 0 0.0 0.0
0 0 0 0 0 0 0 -0.0 0 0 -8.94 0 0 1.84 0 0 0 0 0 0 0.0 0.0 8.94 0 0 0.0 0 0 -8.94 0 0 45.04 0 0 0 0 0 0 -49.84 0.0 8.94 0 0 -0.0 0 -0.0 0 0 -0.0 0 -0.0 0 -0.0 -0.0 -91.52 0 0.0 0 0.0 0.0
0 0 0 0 0 0 0 -0.0 0 0 -9.05 0 0 1.84 0 0 0 0 0 0 0.0 0.0 9.05 0 0 0.0 0 0 -9.05 0 0 46.53 0 0 0 0 0 0 -51.56 0.0 9.05 0 0 -0.0 0 -0.0 0 0 -0.0 0 -0.0 0 -0.0 -0.0 -91.52 0 0.0 0 0.0 0.0
0 0 0 0 0 0 0 -0.0 0 0 -9.17 0 0 1.84 0 0 0 0 0 0 0.0 0.0 9.17 0 0 0.0 0 0 -9.17 0 0 48.02 0 0 0 0 0 0 -53.28 0.0 9.17 0 0 -0.0 0 -0.0 0 0 -0.0 0 -0.0 0 -0.0 -0.0 -91.52 0 0.0 0 0.0 0.0
0 0 0 0 0 0 0 -0.0 0 0 -9.28 0 0 1.84 0 0 0 0 0 0 0.0 0.0 9.28 0 0 0.0 0 0 -9.28 0 0 49.51 0 0 0 0 0 0 -55.0 0.0 9.28 0 0 -0.0 0 -0.0 0 0 -0.0 0 -0.0 0 -0.0 -0.0 -91.52 0 0.0 0 0.0 0.0
0 0 0 0 0 0 0 -0.0 0 0 -9.4 0 0 1.84 0 0 0 0 0 0 0.0 0.0 9.4 0 0 0.0 0 0 -9.4 0 0 51.0 0 0 0 0 0 0 -56.72 0.0 9.4 0 0 -0.0 0 -0.0 0 0 -0.0 0 -0.0 0 -0.0 -0.0 -91.52 0 0.0 0 0.0 0.0
0 0 0 0 0 0 0 -0.0 0 0 -9.51 0 0 1.84 0 0 0 0 0 0 0.0 0.0 9.51 0 0 0.0 0 0 -9.51 0 0 52.49 0 0 0 0 0 0 -58.44 0.0 9.51 0 0 -0.0 0 -0.0 0 0 -0.0 0 -0.0 0 -0.0 -0.0 -91.52 0 0.0 0 0.0 0.0
0 0 0 0 0 0 0 -0.0 0 0 -9.63 0 0 1.84 0 0 0 0 0 0 0.0 0.0 9.63 0 0 0.0 0 0 -9.63 0 0 53.98 0 0 0 0 0 0 -60.16 0.0 9.63 0 0 -0.0 0 -0.0 0 0 -0.0 0 -0.0 0 -0.0 -0.0 -91.52 0 0.0 0 0.0 0.0
0 0 0 0 0 0 0 -0.0 0 0 -9.74 0 0 1.84 0 0 0 0 0 0 0.0 0.0 9.74 0 0 0.0 0 0 -9.74 0 0 55.47 0 0 0 0 0 0 -61.88 0.0 9.74 0 0 -0.0 0 -0.0 0 0 -0.0 0 -0.0 0 -0.0 -0.0 -91.52 0 0.0 0 0.0 0.0
0 0 0 0 0 0 0 -0.0 0 0 -9.85 0 0 1.84 0 0 0 0 0 0 0.0 0.0 9.85 0 0 0.0 0 0 -9.85 0 0 56.96 0 0 0 0 0 0 -63.6 0.0 9.85 0 0 -0.0 0 -0.0 0 0 -0.0 0 -0.0 0 -0.0 -0.0 -91.52 0 0.0 0 0.0 0.0
0 0 0 0 0 0 0 -0.0 0 0 -9.97 0 0 1.84 0 0 0 0 0 0 0.0 0.0 9.97 0 0 0.0 0 0 -9.97 0 0 58.45 0 0 0 0 0 0 -65.31 0.0 9.97 0 0 -0.0 0 -0.0 0 0 -0.0 0 -0.0 0 -0.0 -0.0 -91.52 0 0.0 0 0.0 0.0
0 0 0 0 0 0 0 -0.0 0 0 -10.08 0 0 1.84 0 0 0 0 0 0 0.0 0.0 10.08 0 0 0.0 0 0 -10.08 0 0 59.94 0 0 0 0 0 0 -67.03 0.0 10.08 0 0 -0.0 0 -0.0 0 0 -0.0 0 -0.0 0 -0.0 -0.0 -91.52 0 0.0 0 0.0 0.0
0 0 0 0 0 0 0 -0.0 0 0 -9.91 0 0 1.84 0 0 0 0 0 0 0.0 0.0 9.91 0 0 0.0 0 0 -9.91 0 0 58.45 0 0 0 0 0 0 -65.31 0.0 9.91 0 0 -0.0 0 -0.0 0 0 -0.0 0 -0.0 0 -0.0 -0.0 -91.52 0 0.0 0 0.0 0.0
0 0 0 0 0 0 0 -0.0 0 0 -9.74 0 0 1.84 0 0 0 0 0 0 0.0 0.0 9.74 0 0 0.0 0 0 -9.74 0 0 56.96 0 0 0 0 0 0 -63.6 0.0 9.74 0 0 -0.0 0 -0.0 0 0 -0.0 0 -0.0 0 -0.0 -0.0 -91.52 0 0.0 0 0.0 0.0
0 0 0 0 0 0 0 -0.0 0 0 -9.57 0 0 1.84 0 0 0 0 0 0 0.0 0.0 9.57 0 0 0.0 0 0 -9.57 0 0 55.47 0 0 0 0 0 0 -61.88 0.0 9.57 0 0 -0.0 0 -0.0 0 0 -0.0 0 -0.0 0 -0.0 -0.0 -91.52 0 0.0 0 0.0 0.0
0 0 0 0 0 0 0 -0.0 0 0 -9.4 0 0 1.84 0 0 0 0 0 0 0.0 0.0 9.4 0 0 0.0 0 0 -9.4 0 0 53.98 0 0 0 0 0 0 -60.16 0.0 9.4 0 0 -0.0 0 -0.0 0 0 -0.0 0 -0.0 0 -0.0 -0.0 -91.52 0 0.0 0 0.0 0.0
0 0 0 0 0 0 0 -0.0 0 0 -9.22 0 0 1.84 0 0 0 0 0 0 0.0 0.0 9.22 0 0 0.0 0 0 -9.22 0 0 52.49 0 0 0 0 0 0 -58.44 0.0 9.22 0 0 -0.0 0 -0.0 0 0 -0.0 0 -0.0 0 -0.0 -0.0 -91.52 0 0.0 0 0.0 0.0
0 0 0 0 0 0 0 -0.0 0 0 -9.05 0 0 1.84 0 0 0 0 0 0 0.0 0.0 9.05 0 0 0.0 0 0 -9.05 0 0 51.0 0 0 0 0 0 0 -56.72 0.0 9.05 0 0 -0.0 0 -0.0 0 0 -0.0 0 -0.0 0 -0.0 -0.0 -91.52 0 0.0 0 0.0 0.0
0 0 0 0 0 0 0 -0.0 0 0 -8.88 0 0 1.84 0 0 0 0 0 0 0.0 0.0 8.88 0 0 0.0 0 0 -8.88 0 0 49.51 0 0 0 0 0 0 -55.0 0.0 8.88 0 0 -0.0 0 -0.0 0 0 -0.0 0 -0.0 0 -0.0 -0.0 -91.52 0 0.0 0 0.0 0.0
0 0 0 0 0 0 0 -0.0 0 0 -8.71 0 0 1.84 0 0 0 0 0 0 0.0 0.0 8.71 0 0 0.0 0 0 -8.71 0 0 48.02 0 0 0 0 0 0 -53.28 0.0 8.71 0 0 -0.0 0 -0.0 0 0 -0.0 0 -0.0 0 -0.0 -0.0 -91.52 0 0.0 0 0.0 0.0
0 0 0 0 0 0 0 -0.0 0 0 -8.54 0 0 1.84 0 0 0 0 0 0 0.0 0.0 8.54 0 0 0.0 0 0 -8.54 0 0 46.53 0 0 0 0 0 0 -51.56 0.0 8.54 0 0 -0.0 0 -0.0 0 0 -0.0 0 -0.0 0 -0.0 -0.0 -91.52 0 0.0 0 0.0 0.0
0 0 0 0 0 0 0 -0.0 0 0 -8.37 0 0 1.84 0 0 0 0 0 0 0.0 0.0 8.37 0 0 0.0 0 0 -8.37 0 0 45.04 0 0 0 0 0 0 -49.84 0.0 8.37 0 0 -0.0 0 -0.0 0 0 -0.0 0 -0.0 0 -0.0 -0.0 -91.52 0 0.0 0 0.0 0.0
0 0 0 0 0 0 0 -0.0 0 0 -8.19 0 0 1.84 0 0 0 0 0 0 0.0 0.0 8.19 0 0 0.0 0 0 -8.19 0 0 43.55 0 0 0 0 0 0 -48.13 0.0 8.19 0 0 -0.0 0 -0.0 0 0 -0.0 0 -0.0 0 -0.0 -0.0 -91.52 0 0.0 0 0.0 0.0
0 0 0 0 0 0 0 -0.0 0 0 -8.02 0 0 1.84 0 0 0 0 0 0 0.0 0.0 8.02 0 0 0.0 0 0 -8.02 0 0 42.06 0 0 0 0 0 0 -46.41 0.0 8.02 0 0 -0.0 0 -0.0 0 0 -0.0 0 -0.0 0 -0.0 -0.0 -91.52 0 0.0 0 0.0 0.0
0 0 0 0 0 0 0 -0.0 0 0 -7.85 0 0 1.84 0 0 0 0 0 0 0.0 0.0 7.85 0 0 0.0 0 0 -7.85 0 0 40.57 0 0 0 0 0 0 -44.69 0.0 7.85 0 0 -0.0 0 -0.0 0 0 -0.0 0 -0.0 0 -0.0 -0.0 -91.52 0 0.0 0 0.0 0.0
0 0 0 0 0 0 0 -0.0 0 0 -7.68 0 0 1.84 0 0 0 0 0 0 0.0 0.0 7.68 0 0 0.0 0 0 -7.68 0 0 39.08 0 0 0 0 0 0 -42.97 0.0 7.68 0 0 -0.0 0 -0.0 0 0 -0.0 0 -0.0 0 -0.0 -0.0 -91.52 0 0.0 0 0.0 0.0
0 0 0 0 0 0 0 -0.0 0 0 -7.51 0 0 1.84 0 0 0 0 0 0 0.0 0.0 7.51 0 0 0.0 0 0 -7.51 0 0 37.59 0 0 0 0 0 0 -41.25 0.0 7.51 0 0 -0.0 0 -0.0 0 0 -0.0 0 -0.0 0 -0.0 -0.0 -91.52 0 0.0 0 0.0 0.0
0 0 0 0 0 0 0 -0.0 0 0 -7.33 0 0 1.84 0 0 0 0 0 0 0.0 0.0 7.33 0 0 0.0 0 0 -7.33 0 0 36.1 0 0 0 0 0 0 -39.53 0.0 7.33 0 0 -0.0 0 -0.0 0 0 -0.0 0 -0.0 0 -0.0 -0.0 -91.52 0 0.0 0 0.0 0.0
0 0 0 0 0 0 0 -0.0 0 0 -7.16 0 0 1.84 0 0 0 0 0 0 0.0 0.0 7.16 0 0 0.0 0 0 -7.16 0 0 34.61 0 0 0 0 0 0 -37.81 0.0 7.16 0 0 -0.0 0 -0.0 0 0 -0.0 0 -0.0 0 -0.0 -0.0 -91.52 0 0.0 0 0.0 0.0
0 0 0 0 0 0 0 -0.0 0 0 -6.99 0 0 1.84 0 0 0 0 0 0 0.0 0.0 6.99 0 0 0.0 0 0 -6.99 0 0 33.12 0 0 0 0 0 0 -36.09 0.0 6.99 0 0 -0.0 0 -0.0 0 0 -0.0 0 -0.0 0 -0.0 -0.0 -91.52 0 0.0 0 0.0 0.0
0 0 0 0 0 0 0 -0.0 0 0 -6.82 0 0 1.84 0 0 0 0 0 0 0.0 0.0 6.82 0 0 0.0 0 0 -6.82 0 0 31.63 0 0 0 0 0 0 -34.38 0.0 6.82 0 0 -0.0 0 -0.0 0 0 -0.0 0 -0.0 0 -0.0 -0.0 -91.52 0 0.0 0 0.0 0.0
0 0 0 0 0 0 0 -0.0 0 0 -6.65 0 0 1.84 0 0 0 0 0 0 0.0 0.0 6.65 0 0 0.0 0 0 -6.65 0 0 30.14 0 0 0 0 0 0 -32.66 0.0 6.65 0 0 -0.0 0 -0.0 0 0 -0.0 0 -0.0 0 -0.0 -0.0 -91.52 0 0.0 0 0.0 0.0
0 0 0 0 0 0 0 -0.0 0 0 -6.47 0 0 1.84 0 0 0 0 0 0 0.0 0.0 6.47 0 0 0.0 0 0 -6.47 0 0 28.65 0 0 0 0 0 0 -30.94 0.0 6.47 0 0 -0.0 0 -0.0 0 0 -0.0 0 -0.0 0 -0.0 -0.0 -91.52 0 0.0 0 0.0 0.0
0 0 0 0 0 0 0 -0.0 0 0 -6.3 0 0 1.84 0 0 0 0 0 0 0.0 0.0 6.3 0 0 0.0 0 0 -6.3 0 0 27.17 0 0 0 0 0 0 -29.22 0.0 6.3 0 0 -0.0 0 -0.0 0 0 -0.0 0 -0.0 0 -0.0 -0.0 -91.52 0 0.0 0 0.0 0.0
0 0 0 0 0 0 0 -0.0 0 0 -6.13 0 0 1.84 0 0 0 0 0 0 0.0 0.0 6.13 0 0 0.0 0 0 -6.13 0 0 25.68 0 0 0 0 0 0 -27.5 0.0 6.13 0 0 -0.0 0 -0.0 0 0 -0.0 0 -0.0 0 -0.0 -0.0 -91.52 0 0.0 0 0.0 0.0
0 0 0 0 0 0 0 -0.0 0 0 -5.96 0 0 1.84 0 0 0 0 0 0 0.0 0.0 5.96 0 0 0.0 0 0 -5.96 0 0 24.19 0 0 0 0 0 0 -25.78 0.0 5.96 0 0 -0.0 0 -0.0 0 0 -0.0 0 -0.0 0 -0.0 -0.0 -91.52 0 0.0 0 0.0 0.0
0 0 0 0 0 0 0 -0.0 0 0 -5.79 0 0 1.84 0 0 0 0 0 0 0.0 0.0 5.79 0 0 0.0 0 0 -5.79 0 0 22.7 0 0 0 0 0 0 -24.06 0.0 5.79 0 0 -0.0 0 -0.0 0 0 -0.0 0 -0.0 0 -0.0 -0.0 -91.52 0 0.0 0 0.0 0.0
